{
	"asset":{
		"version":"2.0",
		"generator":"Created using the official Cinema 4D glTF Exporter 1.000x284978"
	},
	"scenes":[{
		"nodes":[0]
	}],
	"nodes":[{
		"name":"pCube4.1",
		"translation":[0.0005355093162506819,
		0.00008699410682311282,
		-0.000505152449477464],
		"rotation":[0.0,
		0.0,
		0.0,
		-1.0],
		"scale":[1.0,
		1.0,
		1.0],
		"children":[1,
		2,
		3]
	},
	{
		"name":"pCube4.1-Mat",
		"mesh":0
	},
	{
		"name":"pCube4.1-Mat.1",
		"mesh":1
	},
	{
		"name":"pCube4.1-Mat",
		"mesh":2
	}],
	"meshes":[{
		"name":"pCube4.1-Mat",
		"primitives":[{
			"attributes":{
				"POSITION":1,
				"NORMAL":2,
				"TEXCOORD_0":3
			},
			"indices":0,
			"material":0
		}]
	},
	{
		"name":"pCube4.1-Mat.1",
		"primitives":[{
			"attributes":{
				"POSITION":5,
				"NORMAL":6,
				"TEXCOORD_0":7
			},
			"indices":4,
			"material":1
		}]
	},
	{
		"name":"pCube4.1-Mat",
		"primitives":[{
			"attributes":{
				"POSITION":9,
				"NORMAL":10,
				"TEXCOORD_0":11
			},
			"indices":8,
			"material":2
		}]
	}],
	"accessors":[{
		"bufferView":0,
		"type":"SCALAR",
		"componentType":5123,
		"count":17412,
		"byteOffset":0,
		"min":[0],
		"max":[3889]
	},
	{
		"bufferView":1,
		"type":"VEC3",
		"componentType":5126,
		"count":3890,
		"byteOffset":0,
		"min":[0.44847169518470766,
		0.44600170850753786,
		0.4665750563144684],
		"max":[0.8718716502189636,
		0.8696349859237671,
		0.8903450965881348]
	},
	{
		"bufferView":1,
		"type":"VEC3",
		"componentType":5126,
		"count":3890,
		"byteOffset":12,
		"min":[-0.8165000677108765,
		-0.8160625100135803,
		-0.8165000677108765],
		"max":[0.8165000677108765,
		0.8160625100135803,
		0.8165000677108765]
	},
	{
		"bufferView":1,
		"type":"VEC2",
		"componentType":5126,
		"count":3890,
		"byteOffset":24,
		"min":[0.0,
		0.0],
		"max":[1.0,
		1.0]
	},
	{
		"bufferView":2,
		"type":"SCALAR",
		"componentType":5123,
		"count":118800,
		"byteOffset":0,
		"min":[0],
		"max":[23867]
	},
	{
		"bufferView":3,
		"type":"VEC3",
		"componentType":5126,
		"count":23868,
		"byteOffset":0,
		"min":[-1.000762701034546,
		-1.001622200012207,
		-1.0090261697769166],
		"max":[1.0018336772918702,
		1.0017962455749512,
		1.0080158710479737]
	},
	{
		"bufferView":3,
		"type":"VEC3",
		"componentType":5126,
		"count":23868,
		"byteOffset":12,
		"min":[-1.0,
		-1.0,
		-1.0],
		"max":[1.0,
		1.0,
		1.0]
	},
	{
		"bufferView":3,
		"type":"VEC2",
		"componentType":5126,
		"count":23868,
		"byteOffset":24,
		"min":[0.0,
		0.0],
		"max":[1.0,
		1.0]
	},
	{
		"bufferView":4,
		"type":"SCALAR",
		"componentType":5123,
		"count":1434,
		"byteOffset":0,
		"min":[0],
		"max":[329]
	},
	{
		"bufferView":5,
		"type":"VEC3",
		"componentType":5126,
		"count":330,
		"byteOffset":0,
		"min":[-1.000535488128662,
		-1.000087022781372,
		-0.9994948506355286],
		"max":[0.9994645118713379,
		0.9999129772186279,
		1.0005052089691163]
	},
	{
		"bufferView":5,
		"type":"VEC3",
		"componentType":5126,
		"count":330,
		"byteOffset":12,
		"min":[-1.0,
		-1.0,
		-1.0],
		"max":[1.0,
		1.0,
		1.0]
	},
	{
		"bufferView":5,
		"type":"VEC2",
		"componentType":5126,
		"count":330,
		"byteOffset":24,
		"min":[0.022387059405446054,
		0.03428208827972412],
		"max":[0.9568209052085877,
		0.9252338409423828]
	}],
	"bufferViews":[{
		"buffer":0,
		"byteOffset":0,
		"byteLength":34824,
		"target":34963
	},
	{
		"buffer":0,
		"byteOffset":34824,
		"byteLength":124480,
		"target":34962,
		"byteStride":32
	},
	{
		"buffer":1,
		"byteOffset":0,
		"byteLength":237600,
		"target":34963
	},
	{
		"buffer":1,
		"byteOffset":237600,
		"byteLength":763776,
		"target":34962,
		"byteStride":32
	},
	{
		"buffer":2,
		"byteOffset":0,
		"byteLength":2868,
		"target":34963
	},
	{
		"buffer":2,
		"byteOffset":2868,
		"byteLength":10560,
		"target":34962,
		"byteStride":32
	}],
	"buffers":[{
		"uri":"data:application/octet-stream;base64,",
		"byteLength":159304
	},
	{
		"uri":"data:application/octet-stream;base64,",
		"byteLength":1001376
	},
	{
		"uri":"data:application/octet-stream;base64,",
		"byteLength":13428
	}],
	"materials":[{
		"pbrMetallicRoughness":{
			"baseColorFactor":[1.0,
			1.0,
			1.0,
			1.0],
			"metallicFactor":0.0,
			"roughnessFactor":0.5
		},
		"emissiveFactor":[0.0,
		0.0,
		0.0],
		"alphaMode":"OPAQUE",
		"doubleSided":false,
		"name":"Mat"
	},
	{
		"pbrMetallicRoughness":{
			"baseColorFactor":[1.0,
			1.0,
			1.0,
			1.0],
			"metallicFactor":0.0,
			"roughnessFactor":0.5
		},
		"emissiveFactor":[0.0,
		0.0,
		0.0],
		"alphaMode":"OPAQUE",
		"doubleSided":false,
		"name":"Mat.1"
	},
	{
		"pbrMetallicRoughness":{
			"baseColorFactor":[0.0,
			0.5882352941176471,
			0.22352941176470585,
			1.0],
			"metallicFactor":0.0,
			"roughnessFactor":0.5
		},
		"emissiveFactor":[0.0,
		0.0,
		0.0],
		"alphaMode":"OPAQUE",
		"doubleSided":false,
		"name":"Mat"
	}]
}