<svg width="1440" height="47" viewBox="0 0 1440 47" fill="none" xmlns="http://www.w3.org/2000/svg">
<rect y="23.021" width="23.0209" height="23.0209" fill="#FBFBF9"/>
<rect x="503" y="23.021" width="23.0209" height="23.0209" fill="#FBFBF9"/>
<rect x="1006" y="23.021" width="23.0209" height="23.0209" fill="#FBFBF9"/>
<rect x="182.58" y="23.021" width="23.0209" height="23.0209" fill="#FBFBF9"/>
<rect x="685.58" y="23.021" width="23.0209" height="23.0209" fill="#FBFBF9"/>
<rect x="1188.58" y="23.021" width="23.0209" height="23.0209" fill="#FBFBF9"/>
<rect x="365.953" y="23.021" width="23.0209" height="23.0209" fill="#FBFBF9"/>
<rect x="868.953" y="23.021" width="23.0209" height="23.0209" fill="#FBFBF9"/>
<rect x="1371.95" y="23.021" width="23.0209" height="23.0209" fill="#FBFBF9"/>
<rect x="23.0215" width="23.0209" height="23.0209" fill="#FBFBF9"/>
<rect x="526.021" width="23.0209" height="23.0209" fill="#FBFBF9"/>
<rect x="1029.02" width="23.0209" height="23.0209" fill="#FBFBF9"/>
<rect x="205.602" width="23.0209" height="23.0209" fill="#FBFBF9"/>
<rect x="708.602" width="23.0209" height="23.0209" fill="#FBFBF9"/>
<rect x="1211.6" width="23.0209" height="23.0209" fill="#FBFBF9"/>
<rect x="388.975" width="22.2271" height="23.0209" fill="#FBFBF9"/>
<rect x="891.975" width="22.2271" height="23.0209" fill="#FBFBF9"/>
<rect x="1394.97" width="22.2271" height="23.0209" fill="#FBFBF9"/>
<rect x="91.2891" y="23.021" width="23.0209" height="23.0209" fill="#FBFBF9"/>
<rect x="594.289" y="23.021" width="23.0209" height="23.0209" fill="#FBFBF9"/>
<rect x="1097.29" y="23.021" width="23.0209" height="23.0209" fill="#FBFBF9"/>
<rect x="274.664" y="23.021" width="22.2271" height="23.0209" fill="#FBFBF9"/>
<rect x="777.664" y="23.021" width="22.2271" height="23.0209" fill="#FBFBF9"/>
<rect x="1280.66" y="23.021" width="22.2271" height="23.0209" fill="#FBFBF9"/>
<rect x="457.244" y="23.021" width="23.0209" height="23.0209" fill="#FBFBF9"/>
<rect x="960.244" y="23.021" width="23.0209" height="23.0209" fill="#FBFBF9"/>
<rect x="114.311" width="23.0209" height="23.0209" fill="#FBFBF9"/>
<rect x="617.311" width="23.0209" height="23.0209" fill="#FBFBF9"/>
<rect x="1120.31" width="23.0209" height="23.0209" fill="#FBFBF9"/>
<rect x="296.891" width="23.0209" height="23.0209" fill="#FBFBF9"/>
<rect x="799.891" width="23.0209" height="23.0209" fill="#FBFBF9"/>
<rect x="1302.89" width="23.0209" height="23.0209" fill="#FBFBF9"/>
<rect x="480.264" width="23.0209" height="23.0209" fill="#FBFBF9"/>
<rect x="983.264" width="23.0209" height="23.0209" fill="#FBFBF9"/>
<rect x="46.041" y="23.021" width="22.2271" height="23.0209" fill="#FBFBF9"/>
<rect x="549.041" y="23.021" width="22.2271" height="23.0209" fill="#FBFBF9"/>
<rect x="1052.04" y="23.021" width="22.2271" height="23.0209" fill="#FBFBF9"/>
<rect x="228.621" y="23.021" width="23.0209" height="23.0209" fill="#FBFBF9"/>
<rect x="731.621" y="23.021" width="23.0209" height="23.0209" fill="#FBFBF9"/>
<rect x="1234.62" y="23.021" width="23.0209" height="23.0209" fill="#FBFBF9"/>
<rect x="411.201" y="23.021" width="23.0209" height="23.0209" fill="#FBFBF9"/>
<rect x="914.201" y="23.021" width="23.0209" height="23.0209" fill="#FBFBF9"/>
<rect x="1417.2" y="23.021" width="23.0209" height="23.0209" fill="#FBFBF9"/>
<rect x="68.2695" width="23.0209" height="23.0209" fill="#FBFBF9"/>
<rect x="571.27" width="23.0209" height="23.0209" fill="#FBFBF9"/>
<rect x="1074.27" width="23.0209" height="23.0209" fill="#FBFBF9"/>
<rect x="251.643" width="23.0209" height="23.0209" fill="#FBFBF9"/>
<rect x="754.643" width="23.0209" height="23.0209" fill="#FBFBF9"/>
<rect x="1257.64" width="23.0209" height="23.0209" fill="#FBFBF9"/>
<rect x="434.223" width="23.0209" height="23.0209" fill="#FBFBF9"/>
<rect x="937.223" width="23.0209" height="23.0209" fill="#FBFBF9"/>
<rect x="137.332" y="23.021" width="23.0209" height="23.0209" fill="#FBFBF9"/>
<rect x="640.332" y="23.021" width="23.0209" height="23.0209" fill="#FBFBF9"/>
<rect x="1143.33" y="23.021" width="23.0209" height="23.0209" fill="#FBFBF9"/>
<rect x="319.912" y="23.021" width="23.0209" height="23.0209" fill="#FBFBF9"/>
<rect x="822.912" y="23.021" width="23.0209" height="23.0209" fill="#FBFBF9"/>
<rect x="1325.91" y="23.021" width="23.0209" height="23.0209" fill="#FBFBF9"/>
<rect x="160.354" width="22.2271" height="23.0209" fill="#FBFBF9"/>
<rect x="663.354" width="22.2271" height="23.0209" fill="#FBFBF9"/>
<rect x="1166.35" width="22.2271" height="23.0209" fill="#FBFBF9"/>
<rect x="342.934" width="23.0209" height="23.0209" fill="#FBFBF9"/>
<rect x="845.934" width="23.0209" height="23.0209" fill="#FBFBF9"/>
<rect x="1348.93" width="23.0209" height="23.0209" fill="#FBFBF9"/>
<rect x="23.0215" y="23.021" width="23.0209" height="23.0209" fill="#00A651"/>
<rect x="526.021" y="23.021" width="23.0209" height="23.0209" fill="#00A651"/>
<rect x="1029.02" y="23.021" width="23.0209" height="23.0209" fill="#00A651"/>
<rect x="205.602" y="23.021" width="23.0209" height="23.0209" fill="#00A651"/>
<rect x="708.602" y="23.021" width="23.0209" height="23.0209" fill="#00A651"/>
<rect x="1211.6" y="23.021" width="23.0209" height="23.0209" fill="#00A651"/>
<rect x="388.975" y="23.021" width="22.2271" height="23.0209" fill="#00A651"/>
<rect x="891.975" y="23.021" width="22.2271" height="23.0209" fill="#00A651"/>
<rect x="1394.97" y="23.021" width="22.2271" height="23.0209" fill="#00A651"/>
<rect x="46.041" width="22.2271" height="23.0209" fill="#00A651"/>
<rect x="549.041" width="22.2271" height="23.0209" fill="#00A651"/>
<rect x="1052.04" width="22.2271" height="23.0209" fill="#00A651"/>
<rect x="228.621" width="23.0209" height="23.0209" fill="#00A651"/>
<rect x="731.621" width="23.0209" height="23.0209" fill="#00A651"/>
<rect x="1234.62" width="23.0209" height="23.0209" fill="#00A651"/>
<rect x="411.201" width="23.0209" height="23.0209" fill="#00A651"/>
<rect x="914.201" width="23.0209" height="23.0209" fill="#00A651"/>
<rect x="1417.2" width="23.0209" height="23.0209" fill="#00A651"/>
<rect width="23.0209" height="23.0209" fill="#00A651"/>
<rect x="503" width="23.0209" height="23.0209" fill="#00A651"/>
<rect x="1006" width="23.0209" height="23.0209" fill="#00A651"/>
<rect x="182.58" width="23.0209" height="23.0209" fill="#00A651"/>
<rect x="685.58" width="23.0209" height="23.0209" fill="#00A651"/>
<rect x="1188.58" width="23.0209" height="23.0209" fill="#00A651"/>
<rect x="365.953" width="23.0209" height="23.0209" fill="#00A651"/>
<rect x="868.953" width="23.0209" height="23.0209" fill="#00A651"/>
<rect x="1371.95" width="23.0209" height="23.0209" fill="#00A651"/>
<rect x="114.311" y="23.021" width="23.0209" height="23.0209" fill="#00A651"/>
<rect x="617.311" y="23.021" width="23.0209" height="23.0209" fill="#00A651"/>
<rect x="1120.31" y="23.021" width="23.0209" height="23.0209" fill="#00A651"/>
<rect x="296.891" y="23.021" width="23.0209" height="23.0209" fill="#00A651"/>
<rect x="799.891" y="23.021" width="23.0209" height="23.0209" fill="#00A651"/>
<rect x="1302.89" y="23.021" width="23.0209" height="23.0209" fill="#00A651"/>
<rect x="480.264" y="23.021" width="23.0209" height="23.0209" fill="#00A651"/>
<rect x="983.264" y="23.021" width="23.0209" height="23.0209" fill="#00A651"/>
<rect x="137.332" width="23.0209" height="23.0209" fill="#00A651"/>
<rect x="640.332" width="23.0209" height="23.0209" fill="#00A651"/>
<rect x="1143.33" width="23.0209" height="23.0209" fill="#00A651"/>
<rect x="319.912" width="23.0209" height="23.0209" fill="#00A651"/>
<rect x="822.912" width="23.0209" height="23.0209" fill="#00A651"/>
<rect x="1325.91" width="23.0209" height="23.0209" fill="#00A651"/>
<rect x="68.2695" y="23.021" width="23.0209" height="23.0209" fill="#00A651"/>
<rect x="571.27" y="23.021" width="23.0209" height="23.0209" fill="#00A651"/>
<rect x="1074.27" y="23.021" width="23.0209" height="23.0209" fill="#00A651"/>
<rect x="251.643" y="23.021" width="23.0209" height="23.0209" fill="#00A651"/>
<rect x="754.643" y="23.021" width="23.0209" height="23.0209" fill="#00A651"/>
<rect x="1257.64" y="23.021" width="23.0209" height="23.0209" fill="#00A651"/>
<rect x="434.223" y="23.021" width="23.0209" height="23.0209" fill="#00A651"/>
<rect x="937.223" y="23.021" width="23.0209" height="23.0209" fill="#00A651"/>
<rect x="91.2891" width="23.0209" height="23.0209" fill="#00A651"/>
<rect x="594.289" width="23.0209" height="23.0209" fill="#00A651"/>
<rect x="1097.29" width="23.0209" height="23.0209" fill="#00A651"/>
<rect x="274.664" width="22.2271" height="23.0209" fill="#00A651"/>
<rect x="777.664" width="22.2271" height="23.0209" fill="#00A651"/>
<rect x="1280.66" width="22.2271" height="23.0209" fill="#00A651"/>
<rect x="457.244" width="23.0209" height="23.0209" fill="#00A651"/>
<rect x="960.244" width="23.0209" height="23.0209" fill="#00A651"/>
<rect x="160.354" y="23.021" width="22.2271" height="23.0209" fill="#00A651"/>
<rect x="663.354" y="23.021" width="22.2271" height="23.0209" fill="#00A651"/>
<rect x="1166.35" y="23.021" width="22.2271" height="23.0209" fill="#00A651"/>
<rect x="342.934" y="23.021" width="23.0209" height="23.0209" fill="#00A651"/>
<rect x="845.934" y="23.021" width="23.0209" height="23.0209" fill="#00A651"/>
<rect x="1348.93" y="23.021" width="23.0209" height="23.0209" fill="#00A651"/>
</svg>
