{
	"asset":{
		"version":"2.0",
		"generator":"Created using the official Cinema 4D glTF Exporter 1.000x284978"
	},
	"scenes":[{
		"nodes":[0,
		1]
	}],
	"nodes":[{
		"name":"pCube4.1",
		"mesh":0
	},
	{
		"name":"Null.5",
		"translation":[0.0010710186325013638,
		0.00017398821364622563,
		-0.001010304898954928],
		"rotation":[0.0,
		-5.665538686387998e-16,
		0.0,
		1.0],
		"scale":[1.0,
		1.0,
		1.0],
		"children":[2,
		3]
	},
	{
		"name":"Null.5-Mat",
		"mesh":1
	},
	{
		"name":"Null.5-Mat.1",
		"mesh":2
	}],
	"meshes":[{
		"name":"pCube4.1",
		"primitives":[{
			"attributes":{
				"POSITION":1,
				"NORMAL":2,
				"TEXCOORD_0":3
			},
			"indices":0,
			"material":0
		}]
	},
	{
		"name":"Null.5-Mat",
		"primitives":[{
			"attributes":{
				"POSITION":5,
				"NORMAL":6,
				"TEXCOORD_0":7
			},
			"indices":4,
			"material":1
		}]
	},
	{
		"name":"Null.5-Mat.1",
		"primitives":[{
			"attributes":{
				"POSITION":9,
				"NORMAL":10,
				"TEXCOORD_0":11
			},
			"indices":8,
			"material":2
		}]
	}],
	"accessors":[{
		"bufferView":0,
		"type":"SCALAR",
		"componentType":5123,
		"count":1434,
		"byteOffset":0,
		"min":[0],
		"max":[329]
	},
	{
		"bufferView":1,
		"type":"VEC3",
		"componentType":5126,
		"count":330,
		"byteOffset":0,
		"min":[-1.0,
		-1.0,
		-1.0],
		"max":[1.0,
		1.0,
		1.0]
	},
	{
		"bufferView":1,
		"type":"VEC3",
		"componentType":5126,
		"count":330,
		"byteOffset":12,
		"min":[-1.0,
		-1.0,
		-1.0],
		"max":[1.0,
		1.0,
		1.0]
	},
	{
		"bufferView":1,
		"type":"VEC2",
		"componentType":5126,
		"count":330,
		"byteOffset":24,
		"min":[0.022387059405446054,
		0.03428208827972412],
		"max":[0.9568209052085877,
		0.9252338409423828]
	},
	{
		"bufferView":2,
		"type":"SCALAR",
		"componentType":5123,
		"count":17412,
		"byteOffset":0,
		"min":[0],
		"max":[3979]
	},
	{
		"bufferView":3,
		"type":"VEC3",
		"componentType":5126,
		"count":3980,
		"byteOffset":0,
		"min":[0.44793620705604555,
		0.44591471552848818,
		0.4670802056789398],
		"max":[0.8713361024856567,
		0.869547963142395,
		0.8908502459526062]
	},
	{
		"bufferView":3,
		"type":"VEC3",
		"componentType":5126,
		"count":3980,
		"byteOffset":12,
		"min":[-0.8165000677108765,
		-0.8160625100135803,
		-0.8165000677108765],
		"max":[0.8165000677108765,
		0.8160625100135803,
		0.8165000677108765]
	},
	{
		"bufferView":3,
		"type":"VEC2",
		"componentType":5126,
		"count":3980,
		"byteOffset":24,
		"min":[0.0,
		0.0],
		"max":[1.0,
		1.0]
	},
	{
		"bufferView":4,
		"type":"SCALAR",
		"componentType":5123,
		"count":118800,
		"byteOffset":0,
		"min":[0],
		"max":[23867]
	},
	{
		"bufferView":5,
		"type":"VEC3",
		"componentType":5126,
		"count":23868,
		"byteOffset":0,
		"min":[-1.001298189163208,
		-1.001709222793579,
		-1.0085209608078004],
		"max":[1.001298189163208,
		1.001709222793579,
		1.0085209608078004]
	},
	{
		"bufferView":5,
		"type":"VEC3",
		"componentType":5126,
		"count":23868,
		"byteOffset":12,
		"min":[-1.0,
		-1.0,
		-1.0],
		"max":[1.0,
		1.0,
		1.0]
	},
	{
		"bufferView":5,
		"type":"VEC2",
		"componentType":5126,
		"count":23868,
		"byteOffset":24,
		"min":[0.0,
		0.0],
		"max":[1.0,
		1.0]
	}],
	"bufferViews":[{
		"buffer":0,
		"byteOffset":0,
		"byteLength":2868,
		"target":34963
	},
	{
		"buffer":0,
		"byteOffset":2868,
		"byteLength":10560,
		"target":34962,
		"byteStride":32
	},
	{
		"buffer":1,
		"byteOffset":0,
		"byteLength":34824,
		"target":34963
	},
	{
		"buffer":1,
		"byteOffset":34824,
		"byteLength":127360,
		"target":34962,
		"byteStride":32
	},
	{
		"buffer":2,
		"byteOffset":0,
		"byteLength":237600,
		"target":34963
	},
	{
		"buffer":2,
		"byteOffset":237600,
		"byteLength":763776,
		"target":34962,
		"byteStride":32
	}],
	"buffers":[{
		"uri":"data:application/octet-stream;base64,",
		"byteLength":13428
	},
	{
		"uri":"data:application/octet-stream;base64,",
		"byteLength":162184
	},
	{
		"uri":"data:application/octet-stream;base64,",
		"byteLength":1001376
	}],
	"materials":[{
		"pbrMetallicRoughness":{
			"baseColorFactor":[0.0,
			0.5882352941176471,
			0.22352941176470585,
			1.0],
			"metallicFactor":0.0,
			"roughnessFactor":0.5
		},
		"emissiveFactor":[0.0,
		0.0,
		0.0],
		"alphaMode":"OPAQUE",
		"doubleSided":false,
		"name":"Mat"
	},
	{
		"pbrMetallicRoughness":{
			"baseColorFactor":[1.0,
			1.0,
			1.0,
			1.0],
			"metallicFactor":0.0,
			"roughnessFactor":0.5
		},
		"emissiveFactor":[0.0,
		0.0,
		0.0],
		"alphaMode":"OPAQUE",
		"doubleSided":false,
		"name":"Mat"
	},
	{
		"pbrMetallicRoughness":{
			"baseColorFactor":[1.0,
			1.0,
			1.0,
			1.0],
			"metallicFactor":0.0,
			"roughnessFactor":0.5
		},
		"emissiveFactor":[0.0,
		0.0,
		0.0],
		"alphaMode":"OPAQUE",
		"doubleSided":false,
		"name":"Mat.1"
	}]
}